<svg xmlns="http://www.w3.org/2000/svg" width="84.95" height="99.612" viewBox="0 0 84.95 99.612">
  <g id="escudo-seguro" transform="translate(-37.681 0)">
    <g id="Grupo_21" data-name="Grupo 21" transform="translate(37.681 0)">
      <g id="Grupo_20" data-name="Grupo 20">
        <rect id="Rect치ngulo_47" data-name="Rect치ngulo 47" width="28" height="10" rx="5" transform="matrix(0.719, 0.695, -0.695, 0.719, 22.863, 43.051)" fill="#3483fa"/>
        <rect id="Rect치ngulo_48" data-name="Rect치ngulo 48" width="45" height="10" rx="5" transform="translate(67.916 37.988) rotate(135)" fill="#3483fa"/>
        <path id="Trazado_16" data-name="Trazado 16" d="M121.089,17.2A165.7,165.7,0,0,1,81.222.291a2.094,2.094,0,0,0-2.13,0A161.161,161.161,0,0,1,39.223,17.2a2.1,2.1,0,0,0-1.542,2.021v21.41a61.593,61.593,0,0,0,18.7,45c9.186,9,19.887,13.979,23.772,13.979s14.585-4.978,23.771-13.979a61.593,61.593,0,0,0,18.7-45V19.221A2.1,2.1,0,0,0,121.089,17.2ZM118.44,40.631a57.485,57.485,0,0,1-17.445,42.008C91.961,91.491,82.3,95.421,80.156,95.421s-11.805-3.93-20.839-12.781A57.486,57.486,0,0,1,41.872,40.631V20.812A165.023,165.023,0,0,0,80.157,4.523,170.246,170.246,0,0,0,118.44,20.811Z" transform="translate(-37.681 0)"/>
        <path id="Trazado_17" data-name="Trazado 17" d="M95.932,100.271a2.1,2.1,0,0,0-2.718-1.182c-3.743,1.475-7.585,2.833-11.419,4.035a2.1,2.1,0,0,0-1.468,2v8.092a2.1,2.1,0,1,0,4.191,0v-6.56c3.44-1.113,6.875-2.344,10.233-3.667A2.1,2.1,0,0,0,95.932,100.271Z" transform="translate(-72.03 -79.693)"/>
        <path id="Trazado_18" data-name="Trazado 18" d="M172.3,90.409a2.1,2.1,0,0,0,.84-.176l.039-.017a2.1,2.1,0,1,0-1.692-3.834l-.034.015a2.095,2.095,0,0,0,.847,4.012Z" transform="translate(-144.42 -69.433)"/>
        <path id="Trazado_19" data-name="Trazado 19" d="M319.088,345.87a2.1,2.1,0,0,0-2.9.608A51,51,0,0,1,310.166,354a53.522,53.522,0,0,1-6.01,5.347,2.1,2.1,0,1,0,2.541,3.333,57.761,57.761,0,0,0,6.482-5.767,55.137,55.137,0,0,0,6.517-8.142A2.1,2.1,0,0,0,319.088,345.87Z" transform="translate(-251.647 -278.304)"/>
        <path id="Trazado_20" data-name="Trazado 20" d="M277.73,432.253l-.12.071a2.1,2.1,0,1,0,2.1,3.626l.139-.082a2.1,2.1,0,1,0-2.118-3.616Z" transform="translate(-230.088 -347.925)"/>
        <path id="Trazado_21" data-name="Trazado 21" d="M134.449,170.051a6.814,6.814,0,0,0-9.636,9.636l12.373,12.372a6.816,6.816,0,0,0,9.636,0l25.829-25.829a6.814,6.814,0,0,0-9.637-9.636L142,177.6Zm31.529-10.493a2.623,2.623,0,1,1,3.71,3.709L143.859,189.1a2.625,2.625,0,0,1-3.71,0l-12.372-12.372a2.623,2.623,0,0,1,3.71-3.71l9.036,9.036a2.1,2.1,0,0,0,2.963,0Z" transform="translate(-106.257 -124.521)"/>
      </g>
    </g>
  </g>
</svg>
