<svg xmlns="http://www.w3.org/2000/svg" width="96.755" height="103.222" viewBox="0 0 96.755 103.222">
  <g id="Grupo_125" data-name="Grupo 125" transform="translate(0.001)">
    <path id="Trazado_71" data-name="Trazado 71" d="M21.449,15.247,32.941,9.072l45.283,22.3.686,20.24-11.321,4.46-.712-19.918Z" fill="#3483fa" stroke="#000" stroke-miterlimit="10" stroke-width="1"/>
    <g id="caja">
      <g id="Grupo_17" data-name="Grupo 17">
        <g id="Grupo_12" data-name="Grupo 12">
          <g id="Grupo_11" data-name="Grupo 11">
            <path id="Trazado_7" data-name="Trazado 7" d="M95.9,22.775,49.036.15a1.516,1.516,0,0,0-1.315,0L.854,22.775A1.512,1.512,0,0,0,0,24.137V79.084a1.511,1.511,0,0,0,.855,1.362l46.867,22.625a1.509,1.509,0,0,0,1.315,0L95.9,80.446a1.511,1.511,0,0,0,.855-1.362V24.137A1.512,1.512,0,0,0,95.9,22.775ZM48.379,3.191,91.767,24.137,79.19,30.209a1.509,1.509,0,0,0-.256-.161L35.84,9.244ZM32.425,10.954,75.751,31.869l-8.874,4.284L23.569,15.246ZM76.764,34.738V50.573l-8.289,4V38.739Zm16.969,43.4L49.891,99.3V47.711l10.458-5.049a1.512,1.512,0,0,0-1.315-2.723L48.379,45.083l-4.193-2.024a1.512,1.512,0,1,0-1.338,2.712l.023.011,4,1.929V99.3L3.024,78.135V26.546L36.41,42.663a1.512,1.512,0,0,0,1.315-2.723L4.99,24.14l15.021-7.251,45.42,21.927.021.027V56.984a1.512,1.512,0,0,0,2.169,1.362l11.313-5.461a1.511,1.511,0,0,0,.855-1.362V33.278l13.945-6.732V78.138Z"/>
          </g>
        </g>
        <path id="Trazado_8" data-name="Trazado 8" d="M15.5,72.271l-6.878-3.32a1.512,1.512,0,0,0-1.315,2.723l6.878,3.32A1.512,1.512,0,0,0,15.5,72.271Z"/>
        <path id="Trazado_9" data-name="Trazado 9" d="M21.831,68.151l-13.2-6.372a1.512,1.512,0,1,0-1.337,2.712l.022.011,13.2,6.372a1.512,1.512,0,0,0,1.315-2.723Z"/>
      </g>
    </g>
  </g>
</svg>
