<svg id="camion" xmlns="http://www.w3.org/2000/svg" width="73.634" height="52.771" viewBox="0 0 73.634 52.771">
  <g id="Grupo_63" data-name="Grupo 63" transform="translate(9.818 38.044)">
    <g id="Grupo_62" data-name="Grupo 62">
      <path id="Trazado_63" data-name="Trazado 63" d="M75.63,337.067a7.363,7.363,0,1,0,7.363,7.363A7.371,7.371,0,0,0,75.63,337.067Zm0,12.272a4.909,4.909,0,1,1,4.909-4.909A4.914,4.914,0,0,1,75.63,349.339Z" transform="translate(-68.267 -337.067)"/>
    </g>
  </g>
  <g id="Grupo_65" data-name="Grupo 65" transform="translate(51.544 38.044)">
    <g id="Grupo_64" data-name="Grupo 64">
      <path id="Trazado_64" data-name="Trazado 64" d="M365.763,337.067a7.363,7.363,0,1,0,7.363,7.363A7.371,7.371,0,0,0,365.763,337.067Zm0,12.272a4.909,4.909,0,1,1,4.909-4.909A4.914,4.914,0,0,1,365.763,349.339Z" transform="translate(-358.4 -337.067)"/>
    </g>
  </g>
  <g id="Grupo_67" data-name="Grupo 67" transform="translate(46.635 13.5)">
    <g id="Grupo_66" data-name="Grupo 66">
      <path id="Trazado_65" data-name="Trazado 65" d="M351.071,184.145l-11.045-17.181a1.227,1.227,0,0,0-1.032-.563h-13.5a1.227,1.227,0,0,0-1.227,1.227v30.681a1.226,1.226,0,0,0,1.227,1.227H330.4v-2.454h-3.682V168.854h11.6l10.488,16.315v11.912h-6.136v2.454h7.363a1.226,1.226,0,0,0,1.227-1.227v-13.5A1.224,1.224,0,0,0,351.071,184.145Z" transform="translate(-324.267 -166.4)"/>
    </g>
  </g>
  <g id="Grupo_69" data-name="Grupo 69" transform="translate(51.544 18.408)">
    <g id="Grupo_68" data-name="Grupo 68">
      <path id="Trazado_66" data-name="Trazado 66" d="M360.855,211.578v-8.591h9.818v-2.455H359.628a1.227,1.227,0,0,0-1.227,1.227v11.045a1.226,1.226,0,0,0,1.227,1.227h18.408v-2.455H360.855Z" transform="translate(-358.401 -200.533)"/>
    </g>
  </g>
  <g id="Grupo_71" data-name="Grupo 71" transform="translate(0 4.909)">
    <g id="Grupo_70" data-name="Grupo 70">
      <path id="Trazado_67" data-name="Trazado 67" d="M47.862,106.667H1.227A1.228,1.228,0,0,0,0,107.894v39.271a1.227,1.227,0,0,0,1.227,1.227h9.818v-2.455H2.455V109.121h44.18v36.817H23.317v2.455H47.862a1.226,1.226,0,0,0,1.227-1.227V107.894A1.227,1.227,0,0,0,47.862,106.667Z" transform="translate(0 -106.667)"/>
    </g>
  </g>
  <g id="Grupo_73" data-name="Grupo 73" transform="translate(1.227 39.271)">
    <g id="Grupo_72" data-name="Grupo 72">
      <rect id="Rectángulo_24" data-name="Rectángulo 24" width="7.363" height="2.455"/>
    </g>
  </g>
  <g id="Grupo_75" data-name="Grupo 75" transform="translate(25.772 39.271)">
    <g id="Grupo_74" data-name="Grupo 74">
      <rect id="Rectángulo_25" data-name="Rectángulo 25" width="20.863" height="2.455"/>
    </g>
  </g>
  <g id="Grupo_77" data-name="Grupo 77" transform="translate(67.498 39.271)">
    <g id="Grupo_76" data-name="Grupo 76">
      <rect id="Rectángulo_26" data-name="Rectángulo 26" width="4.909" height="2.455"/>
    </g>
  </g>
  <g id="Grupo_79" data-name="Grupo 79" transform="translate(4.909 9.818)">
    <g id="Grupo_78" data-name="Grupo 78">
      <rect id="Rectángulo_27" data-name="Rectángulo 27" width="42.953" height="2.455"/>
    </g>
  </g>
  <g id="Grupo_81" data-name="Grupo 81" transform="translate(15.954 44.18)">
    <g id="Grupo_80" data-name="Grupo 80">
      <rect id="Rectángulo_28" data-name="Rectángulo 28" width="2.455" height="2.455"/>
    </g>
  </g>
  <g id="Grupo_83" data-name="Grupo 83" transform="translate(57.68 44.18)">
    <g id="Grupo_82" data-name="Grupo 82">
      <rect id="Rectángulo_29" data-name="Rectángulo 29" width="2.455" height="2.455"/>
    </g>
  </g>
  <g id="Grupo_85" data-name="Grupo 85" transform="translate(4.909 0)">
    <g id="Grupo_84" data-name="Grupo 84">
      <rect id="Rectángulo_30" data-name="Rectángulo 30" width="17.181" height="2.455"/>
    </g>
  </g>
  <g id="Grupo_87" data-name="Grupo 87" transform="translate(0 0)">
    <g id="Grupo_86" data-name="Grupo 86">
      <rect id="Rectángulo_31" data-name="Rectángulo 31" width="2.455" height="2.455"/>
    </g>
  </g>
</svg>
