<svg xmlns="http://www.w3.org/2000/svg" width="120" height="120" viewBox="0 0 120 120">
  <path id="Trazado_50" data-name="Trazado 50" d="M119.485,15.669l-.986-.986a4.538,4.538,0,0,0-.248-6.152l-.769-.769A1.758,1.758,0,1,0,115,10.248l.769.769a1.027,1.027,0,0,1-.093,1.535L102.036,23.224l-5.259-5.259L107.448,4.329a1.028,1.028,0,0,1,1.535-.093l.6.6a1.758,1.758,0,0,0,2.486-2.486l-.6-.6a4.538,4.538,0,0,0-6.152-.248l-.986-.986A1.758,1.758,0,1,0,101.845,3l1.221,1.221-1.522,1.945-.932-.932a1.758,1.758,0,0,0-2.486,2.486l1.235,1.235L97.84,10.9l-.7-.7a1.758,1.758,0,0,0-2.486,2.486l1,1-1.873,2.393a3.1,3.1,0,0,0-.645,2.185L65.05,45.336a18.943,18.943,0,0,0-13.079-5.2h-.1a18.42,18.42,0,0,0-13.167,5.538,18.607,18.607,0,0,0-3.647,5.3,10.316,10.316,0,0,1-8.994,6A26.819,26.819,0,0,0,0,83.752a27.258,27.258,0,0,0,8.04,19.483l8.726,8.725a27.461,27.461,0,0,0,17.313,7.96q1.048.08,2.091.08a26.817,26.817,0,0,0,15.979-5.238,1.758,1.758,0,1,0-2.094-2.824,23.8,23.8,0,0,1-30.8-2.464l-8.726-8.725A23.766,23.766,0,0,1,3.515,83.762a23.124,23.124,0,0,1,6.878-16.5,23.368,23.368,0,0,1,15.777-6.764A13.855,13.855,0,0,0,38.256,52.44a15.1,15.1,0,0,1,2.96-4.3A14.93,14.93,0,0,1,51.89,43.657h.081a15.454,15.454,0,0,1,10.546,4.121L50.864,59.007a2.933,2.933,0,0,0-.039,4.185l5.983,5.983a2.911,2.911,0,0,0,2.073.859h.028a2.91,2.91,0,0,0,2.085-.9l11.23-11.654a15.456,15.456,0,0,1,4.12,10.627A14.93,14.93,0,0,1,71.86,78.784a15.105,15.105,0,0,1-4.3,2.96,13.854,13.854,0,0,0-8.054,12.085,23.3,23.3,0,0,1-4.446,13.044,1.758,1.758,0,1,0,2.845,2.066,26.807,26.807,0,0,0,5.115-15,10.315,10.315,0,0,1,6-8.994,18.613,18.613,0,0,0,5.3-3.647,18.419,18.419,0,0,0,5.538-13.166,18.946,18.946,0,0,0-5.195-13.178l27.067-28.088c.091.008.182.013.273.013a3.1,3.1,0,0,0,1.913-.659l2.393-1.873,1,1a1.758,1.758,0,1,0,2.486-2.486l-.7-.7,1.945-1.522,1.235,1.235a1.758,1.758,0,0,0,2.486-2.486l-.932-.932,1.944-1.522L117,18.156a1.758,1.758,0,0,0,2.486-2.487ZM98.74,24.9l-3.628,3.765-3.776-3.776L95.1,21.261Zm-8.931,9.268-3.976-3.976L88.8,27.329,92.672,31.2Zm-6.088,6.318L79.515,36.28,83.3,32.632,87.369,36.7ZM77.632,46.8,73.2,42.368l3.786-3.648,4.3,4.3ZM65.346,59.554l-4.9-4.9,3.843-3.7,4.759,4.759Zm6.143-6.375-4.667-4.667,3.843-3.7,4.527,4.528ZM58.874,66.27l-5.143-5.143,4.184-4.032,4.991,4.991Z" transform="translate(0.001 -0.001)"/>
</svg>
