<?xml version="1.0" encoding="utf-8"?>
<!-- Generator: Adobe Illustrator 24.3.0, SVG Export Plug-In . SVG Version: 6.00 Build 0)  -->
<svg version="1.1" id="Capa_1" xmlns="http://www.w3.org/2000/svg" xmlns:xlink="http://www.w3.org/1999/xlink" x="0px" y="0px"
	 viewBox="0 0 92 92" style="enable-background:new 0 0 92 92;" xml:space="preserve">
<style type="text/css">
	.st0{fill:#FFFFFF;}
</style>
<g>
	<g>
		<g>
			<path class="st0" d="M35.8,66.3C35.8,66.3,35.8,66.3,35.8,66.3L35.8,66.3C35.8,66.3,35.8,66.3,35.8,66.3z"/>
		</g>
	</g>
	<g>
		<g>
			<path class="st0" d="M45.5,23.8c-0.8-4.3-4.6-7.4-9-7.4h-6.2c-0.3-0.8-1.1-1.4-2.1-1.4c-3,0-6.4,0-9.5,0c-0.8,0-1.5,0.4-1.9,1
				c-3.7,5.9-4.2,6-4.2,7.1c0,1.2,1,2.2,2.2,2.2c9.1,0,4.2,0,13.3,0c0.9,0,1.7-0.6,2.1-1.4h4c1.4,0,2.6,1.2,2.6,2.6
				c-1,35.6-1.1,39.4-1.1,39.7c0,0,0,0,0,0c0,0,0,0,0,0c0,0,0,0,0,0c0,0,0,0,0,0v0c0,0,0,0,0,0c0,0,0,0,0,0c0,0,0,0,0,0
				c-0.1,2.9,0.7,5.7,2.4,8.1c0.3,0.4,0.7,0.6,1.1,0.6c1.1,0,1.7-1.2,1.1-2.1c-1.4-2-2-4.3-1.9-6.5c0-0.6,1.1-39.7,1.1-39.8
				c0-2.9-2.4-5.3-5.3-5.3h-3.9v-2.3h6.1c3.1,0,5.8,2.2,6.4,5.2c0.1,0.7,0.8,1.2,1.6,1.1C45.1,25.2,45.6,24.5,45.5,23.8z M19.7,22.7
				h-4l3.2-5h0.8C19.7,17.7,19.7,22.7,19.7,22.7z M27.7,22.7c-2,0-3.4,0-5.3,0v-5c1.9,0,3.3,0,5.3,0C27.7,19,27.7,21.5,27.7,22.7z"
				/>
		</g>
	</g>
	<g>
		<g>
			<path class="st0" d="M78.4,47.7l-3.1-3.1c-0.5-0.5-1.4-0.5-1.9,0s-0.5,1.4,0,1.9l3.1,3.1c0.1,0.1,0.1,0.3,0,0.5l-2.4,2.4
				c-0.1,0.1-0.3,0.1-0.5,0L71.4,50c-1.4-1.4-9.6-9.6-11.3-11.3c-0.1-0.1-0.1-0.3,0-0.5l2.4-2.4c0.1-0.1,0.2-0.1,0.2-0.1
				c0.1,0,0.1,0,0.2,0.1l6.8,6.8c0.5,0.5,1.4,0.5,1.9,0c0.5-0.5,0.5-1.4,0-1.9L64.8,34c-1.2-1.2-3.1-1.2-4.2,0l-2.4,2.4
				c-1.2,1.2-1.1,3-0.1,4.2c-3.5,3.6-5.5,8.4-5.5,13.5v9.6c0,1.2-1,2.2-2.2,2.2c-1.2,0-2.1-0.9-2.2-2.1c-0.3-5.1-0.2-3.2-0.6-8.3
				l1.5-0.1l0,0.7c0.1,0.7,0.7,1.3,1.4,1.2c0.7-0.1,1.3-0.7,1.2-1.4l-0.3-4.2c-0.1-0.7-0.7-1.3-1.4-1.2c-0.7,0.1-1.3,0.7-1.2,1.4
				l0.1,0.8l-1.5,0.1v0L47,46.4v0l1.4-0.1l0.1,0.8c0.1,0.7,0.7,1.3,1.4,1.2c0.7-0.1,1.3-0.7,1.2-1.4l-0.3-4.2
				c-0.1-0.7-0.7-1.3-1.4-1.2c-0.7,0.1-1.3,0.7-1.2,1.4l0.1,0.8l-1.4,0.1v0l-0.4-6.4v0l1.4-0.1l0.1,0.8c0.1,0.7,0.7,1.3,1.4,1.2
				c0.7-0.1,1.3-0.7,1.2-1.4c-0.3-4.2-0.3-4.2-0.3-4.2c-0.1-0.7-0.7-1.3-1.4-1.2c-0.7,0.1-1.3,0.7-1.2,1.4l0.1,0.7l-1.4,0.1v0
				l-0.4-5.3c0-0.7-0.7-1.3-1.4-1.2c-0.7,0-1.3,0.7-1.2,1.4l0.4,5.3v0l-0.5,0c0-0.5-0.1-1.1-0.1-1.6c0-0.7-0.7-1.3-1.4-1.3
				c-0.7,0-1.3,0.7-1.3,1.4c0.4,7.8,1.2,15.9,1.7,23.7c0,0.7,0.6,1.3,1.3,1.3c0,0,0.1,0,0.1,0c0.7,0,1.3-0.7,1.2-1.4
				c0-0.4-0.1-0.9-0.1-1.3l0.4,0l0.6,8.3c0.2,2.6,2.3,4.6,4.9,4.6c2.7,0,4.9-2.2,4.9-4.9V54c0-4.3,1.7-8.4,4.7-11.5l8.7,8.7
				c-3.7,1.8-6,5.5-6,9.6v5.9c0,6.1-5,11.1-11.1,11.1c-1.3-0.1-4.4,0.5-7.8-1.6c-0.6-0.4-1.5-0.2-1.8,0.4c-0.4,0.6-0.2,1.5,0.4,1.8
				c4.2,2.6,8.1,1.9,9.2,2c7.6,0,13.8-6.2,13.8-13.8v-5.9c0-5.5,5.3-7.6,5.3-7.6l1.1,1.1c1.2,1.2,3.1,1.2,4.2,0l2.4-2.4
				C79.6,50.7,79.6,48.8,78.4,47.7z M43.2,37.5l0.5,0v0l0.4,6.4v0l-0.5,0C43.5,41.8,43.4,39.6,43.2,37.5z M44.8,53l-0.4,0
				c-0.1-2-0.3-3.9-0.4-5.8c0-0.2,0-0.4,0-0.6l0.5,0L44.8,53L44.8,53L44.8,53z"/>
		</g>
	</g>
	<g>
		<g>
			<circle class="st0" cx="59.1" cy="57.9" r="2.4"/>
		</g>
	</g>
	<g>
		<g>
			<circle class="st0" cx="59.1" cy="65.1" r="2.4"/>
		</g>
	</g>
	<g>
	</g>
	<g>
	</g>
	<g>
	</g>
	<g>
	</g>
	<g>
	</g>
	<g>
	</g>
	<g>
	</g>
	<g>
	</g>
	<g>
	</g>
	<g>
	</g>
	<g>
	</g>
	<g>
	</g>
	<g>
	</g>
	<g>
	</g>
	<g>
	</g>
</g>
</svg>
