<svg xmlns="http://www.w3.org/2000/svg" width="109.177" height="89.133" viewBox="0 0 109.177 89.133">
  <g id="credit-card" transform="translate(1 -46.014)">
    <g id="Rect치ngulo_45" data-name="Rect치ngulo 45" transform="translate(-1 57.014)" fill="#3483fa" stroke="#3483fa" stroke-width="1">
      <rect width="98" height="15" stroke="none"/>
      <rect x="0.5" y="0.5" width="97" height="14" fill="none"/>
    </g>
    <g id="Rect치ngulo_46" data-name="Rect치ngulo 46" transform="translate(57 91.014)" fill="#3483fa" stroke="#3483fa" stroke-width="1">
      <rect width="30" height="15" stroke="none"/>
      <rect x="0.5" y="0.5" width="29" height="14" fill="none"/>
    </g>
    <g id="Grupo_19" data-name="Grupo 19" transform="translate(-1 46.014)">
      <g id="Grupo_18" data-name="Grupo 18" transform="translate(0 0)">
        <path id="Trazado_10" data-name="Trazado 10" d="M265.353,262.29h29.1a1.718,1.718,0,0,0,1.819-1.819V244.1a1.718,1.718,0,0,0-1.819-1.819h-29.1a1.718,1.718,0,0,0-1.819,1.819v16.371A1.718,1.718,0,0,0,265.353,262.29Zm1.819-16.371h25.467v12.733H267.172Z" transform="translate(-207.143 -200.443)"/>
        <path id="Trazado_11" data-name="Trazado 11" d="M34.953,211.785H49.505a1.819,1.819,0,0,0,0-3.638H34.953a1.819,1.819,0,0,0,0,3.638Z" transform="translate(-25.858 -173.585)"/>
        <path id="Trazado_12" data-name="Trazado 12" d="M137.353,211.785h14.552a1.819,1.819,0,1,0,0-3.638H137.353a1.819,1.819,0,0,0,0,3.638Z" transform="translate(-106.429 -173.585)"/>
        <path id="Trazado_13" data-name="Trazado 13" d="M34.953,245.919H58.6a1.819,1.819,0,0,0,0-3.638H34.953a1.819,1.819,0,0,0,0,3.638Z" transform="translate(-25.858 -200.443)"/>
        <path id="Trazado_14" data-name="Trazado 14" d="M185.476,242.28h-5.457a1.819,1.819,0,1,0,0,3.638h5.457a1.819,1.819,0,1,0,0-3.638Z" transform="translate(-140 -200.442)"/>
        <path id="Trazado_15" data-name="Trazado 15" d="M106.506,65.3a6.777,6.777,0,0,0-4.911-2.729l-4.366-.529V53.29a7.3,7.3,0,0,0-7.276-7.276H6.276A7.3,7.3,0,0,0-1,53.29V111.5a7.3,7.3,0,0,0,5.213,6.974,7.079,7.079,0,0,0,6.429,7.214l84.04,9.459h.728a7.283,7.283,0,0,0,7.276-6.185l5.457-58.391A7.071,7.071,0,0,0,106.506,65.3ZM2.638,58.747H93.59V69.662H2.638Zm3.638-9.1H89.952A3.649,3.649,0,0,1,93.59,53.29v1.819H2.638V53.29A3.649,3.649,0,0,1,6.276,49.652ZM2.638,111.5V73.3H93.59v38.2a3.649,3.649,0,0,1-3.638,3.638H6.276A3.649,3.649,0,0,1,2.638,111.5ZM104.5,69.843l-5.457,58.391a3.669,3.669,0,0,1-4,3.274L11.188,122.05a3.677,3.677,0,0,1-3.274-3.274H89.952a7.3,7.3,0,0,0,7.276-7.276V65.478l4.184.364a3.109,3.109,0,0,1,2.365,1.273A3.684,3.684,0,0,1,104.5,69.843Z" transform="translate(1 -46.014)"/>
      </g>
    </g>
  </g>
</svg>
