<svg id="camion" xmlns="http://www.w3.org/2000/svg" width="62.471" height="44.771" viewBox="0 0 62.471 44.771">
  <g id="Grupo_63" data-name="Grupo 63" transform="translate(8.33 32.277)">
    <g id="Grupo_62" data-name="Grupo 62">
      <path id="Trazado_63" data-name="Trazado 63" d="M74.514,337.067a6.247,6.247,0,1,0,6.247,6.247A6.253,6.253,0,0,0,74.514,337.067Zm0,10.412a4.165,4.165,0,1,1,4.165-4.165A4.169,4.169,0,0,1,74.514,347.479Z" transform="translate(-68.267 -337.067)"/>
    </g>
  </g>
  <g id="Grupo_65" data-name="Grupo 65" transform="translate(43.73 32.277)">
    <g id="Grupo_64" data-name="Grupo 64">
      <path id="Trazado_64" data-name="Trazado 64" d="M364.647,337.067a6.247,6.247,0,1,0,6.247,6.247A6.253,6.253,0,0,0,364.647,337.067Zm0,10.412a4.165,4.165,0,1,1,4.165-4.165A4.169,4.169,0,0,1,364.647,347.479Z" transform="translate(-358.4 -337.067)"/>
    </g>
  </g>
  <g id="Grupo_67" data-name="Grupo 67" transform="translate(39.565 11.453)">
    <g id="Grupo_66" data-name="Grupo 66">
      <path id="Trazado_65" data-name="Trazado 65" d="M347.007,181.455l-9.371-14.577a1.041,1.041,0,0,0-.876-.478H325.308a1.041,1.041,0,0,0-1.041,1.041v26.03a1.04,1.04,0,0,0,1.041,1.041h4.165v-2.082h-3.124V168.482h9.843l8.9,13.841V192.43h-5.206v2.082h6.247a1.04,1.04,0,0,0,1.041-1.041V182.018A1.038,1.038,0,0,0,347.007,181.455Z" transform="translate(-324.267 -166.4)"/>
    </g>
  </g>
  <g id="Grupo_69" data-name="Grupo 69" transform="translate(43.73 15.618)">
    <g id="Grupo_68" data-name="Grupo 68">
      <path id="Trazado_66" data-name="Trazado 66" d="M360.483,209.9v-7.288h8.33v-2.082h-9.371a1.041,1.041,0,0,0-1.041,1.041v9.371a1.04,1.04,0,0,0,1.041,1.041H375.06V209.9H360.483Z" transform="translate(-358.401 -200.533)"/>
    </g>
  </g>
  <g id="Grupo_71" data-name="Grupo 71" transform="translate(0 4.165)">
    <g id="Grupo_70" data-name="Grupo 70">
      <path id="Trazado_67" data-name="Trazado 67" d="M40.606,106.667H1.041A1.042,1.042,0,0,0,0,107.708v33.318a1.041,1.041,0,0,0,1.041,1.041h8.33v-2.082H2.082V108.749H39.565v31.236H19.782v2.082H40.606a1.04,1.04,0,0,0,1.041-1.041V107.708A1.041,1.041,0,0,0,40.606,106.667Z" transform="translate(0 -106.667)"/>
    </g>
  </g>
  <g id="Grupo_73" data-name="Grupo 73" transform="translate(1.041 33.318)">
    <g id="Grupo_72" data-name="Grupo 72">
      <rect id="Rectángulo_24" data-name="Rectángulo 24" width="6.247" height="2.082"/>
    </g>
  </g>
  <g id="Grupo_75" data-name="Grupo 75" transform="translate(21.865 33.318)">
    <g id="Grupo_74" data-name="Grupo 74">
      <rect id="Rectángulo_25" data-name="Rectángulo 25" width="17.7" height="2.082"/>
    </g>
  </g>
  <g id="Grupo_77" data-name="Grupo 77" transform="translate(57.265 33.318)">
    <g id="Grupo_76" data-name="Grupo 76">
      <rect id="Rectángulo_26" data-name="Rectángulo 26" width="4.165" height="2.082"/>
    </g>
  </g>
  <g id="Grupo_79" data-name="Grupo 79" transform="translate(4.165 8.33)">
    <g id="Grupo_78" data-name="Grupo 78">
      <rect id="Rectángulo_27" data-name="Rectángulo 27" width="36.442" height="2.082"/>
    </g>
  </g>
  <g id="Grupo_81" data-name="Grupo 81" transform="translate(13.535 37.483)">
    <g id="Grupo_80" data-name="Grupo 80">
      <rect id="Rectángulo_28" data-name="Rectángulo 28" width="2.082" height="2.082"/>
    </g>
  </g>
  <g id="Grupo_83" data-name="Grupo 83" transform="translate(48.936 37.483)">
    <g id="Grupo_82" data-name="Grupo 82">
      <rect id="Rectángulo_29" data-name="Rectángulo 29" width="2.082" height="2.082"/>
    </g>
  </g>
  <g id="Grupo_85" data-name="Grupo 85" transform="translate(4.165 0)">
    <g id="Grupo_84" data-name="Grupo 84">
      <rect id="Rectángulo_30" data-name="Rectángulo 30" width="14.577" height="2.082"/>
    </g>
  </g>
  <g id="Grupo_87" data-name="Grupo 87" transform="translate(0 0)">
    <g id="Grupo_86" data-name="Grupo 86">
      <rect id="Rectángulo_31" data-name="Rectángulo 31" width="2.082" height="2.082"/>
    </g>
  </g>
</svg>
