<svg xmlns="http://www.w3.org/2000/svg" width="92" height="91.999" viewBox="0 0 92 91.999">
  <g id="flute" transform="translate(4.001 -0.001)">
    <g id="Grupo_31" data-name="Grupo 31" transform="translate(49.745 39.486)">
      <g id="Grupo_30" data-name="Grupo 30">
        <circle id="Elipse_1" data-name="Elipse 1" cx="1.348" cy="1.348" r="1.348" fill="#fff"/>
      </g>
    </g>
    <g id="Grupo_33" data-name="Grupo 33" transform="translate(43.219 46.013)">
      <g id="Grupo_32" data-name="Grupo 32">
        <circle id="Elipse_2" data-name="Elipse 2" cx="1.348" cy="1.348" r="1.348" fill="#fff"/>
      </g>
    </g>
    <g id="Grupo_35" data-name="Grupo 35" transform="translate(36.693 52.539)">
      <g id="Grupo_34" data-name="Grupo 34">
        <circle id="Elipse_3" data-name="Elipse 3" cx="1.348" cy="1.348" r="1.348" fill="#fff"/>
      </g>
    </g>
    <g id="Grupo_37" data-name="Grupo 37" transform="translate(30.165 59.065)">
      <g id="Grupo_36" data-name="Grupo 36">
        <circle id="Elipse_4" data-name="Elipse 4" cx="1.348" cy="1.348" r="1.348" fill="#fff"/>
      </g>
    </g>
    <g id="Grupo_39" data-name="Grupo 39" transform="translate(23.639 65.591)">
      <g id="Grupo_38" data-name="Grupo 38">
        <circle id="Elipse_5" data-name="Elipse 5" cx="1.348" cy="1.348" r="1.348" fill="#fff"/>
      </g>
    </g>
    <g id="Grupo_41" data-name="Grupo 41" transform="translate(17.112 72.117)">
      <g id="Grupo_40" data-name="Grupo 40">
        <circle id="Elipse_6" data-name="Elipse 6" cx="1.348" cy="1.348" r="1.348" fill="#fff"/>
      </g>
    </g>
    <g id="Grupo_43" data-name="Grupo 43" transform="translate(-0.001 0.001)">
      <g id="Grupo_42" data-name="Grupo 42">
        <path id="Trazado_30" data-name="Trazado 30" d="M90.5,3.093l-1.6-1.6A5.141,5.141,0,0,0,84.554.053C81.666.472,77.083,2,71.55,6.785A3.608,3.608,0,0,0,70.315,11.2L59.331,22.184l-9.012,6.444c-2.283,1.656-1.459,3.482-1.333,3.9L20.9,60.612a1.348,1.348,0,0,0,1.906,1.906L50.593,34.735l6.672,6.672L19.237,79.435l-6.672-6.672,6.218-6.218a1.348,1.348,0,1,0-1.906-1.906L10.165,71.35C9.9,71.3,6.521,70.8,5.226,74.756a4.953,4.953,0,0,0-3.778,8.449l7.345,7.345a4.953,4.953,0,0,0,8.449-3.787c3.9-.635,3.46-4.661,3.407-4.93L59.47,43.013c.327.1,2.163.889,3.9-1.333l6.444-9.012L80.8,21.684c.407.13,2.01,1.17,4.415-1.235A22.247,22.247,0,0,0,87.544,17.5a1.348,1.348,0,1,0-2.2-1.561c-.647.911-1.384,1.825-2.164,2.738a1.456,1.456,0,0,1-2.16.077l-7.778-7.778a1.456,1.456,0,0,1,.077-2.16c5.331-4.554,9.55-5.8,11.621-6.1A2.431,2.431,0,0,1,87,3.4L88.6,5a2.433,2.433,0,0,1,.683,2.06,16.746,16.746,0,0,1-1.289,4.292,1.348,1.348,0,1,0,2.467,1.085,19.423,19.423,0,0,0,1.489-4.991A5.143,5.143,0,0,0,90.5,3.093ZM17.606,83.7a1.488,1.488,0,0,1-1.32.4,4.977,4.977,0,0,0-.484-.563l-.681-.681a1.348,1.348,0,0,0-1.906,1.906l.681.681a2.261,2.261,0,1,1-3.2,3.2L3.354,81.3a2.261,2.261,0,0,1,3.2-3.2l2.776,2.776a1.348,1.348,0,1,0,1.906-1.906L8.457,76.2a4.969,4.969,0,0,0-.56-.482,1.468,1.468,0,0,1,.4-1.321,1.384,1.384,0,0,1,2.088,0l7.221,7.221A1.45,1.45,0,0,1,17.606,83.7Zm43.573-43.59a.849.849,0,0,1-1.29.106l-8.108-8.108a.849.849,0,0,1,.106-1.291l8.174-5.845,6.963,6.963ZM74.392,18.605,69.918,23.04l-1.048-1.057,4.474-4.434ZM73.273,14.82a2.589,2.589,0,0,0-1.76.749l-4.606,4.564a2.6,2.6,0,0,0-.017,3.681L68.069,25h0a2.606,2.606,0,0,0,3.681.017l4.606-4.565a2.592,2.592,0,0,0,.766-1.786l1.441,1.441-9.778,9.778-6.673-6.672,9.778-9.778Z" transform="translate(-3.999 -0.001)" fill="#fff"/>
      </g>
    </g>
  </g>
</svg>
