<svg xmlns="http://www.w3.org/2000/svg" width="45.793" height="53.427" viewBox="0 0 45.793 53.427">
  <g id="price-tag" transform="translate(0.421 0.406)">
    <path id="Trazado_68" data-name="Trazado 68" d="M81.454,37.755a.773.773,0,0,0,.773-.773V18.094a3.357,3.357,0,0,0-1.1-2.479L74.548,9.632l6.3-5.587A2.319,2.319,0,0,0,77.754.589L70.82,6.739A10.2,10.2,0,0,0,64.8,5.946L54.509,8.184a3.225,3.225,0,0,0-2.1,1.536L37.535,35.478a3.223,3.223,0,0,0,1.179,4.4l4.562,2.634a.773.773,0,0,0,.773-1.339l-4.562-2.634a1.675,1.675,0,0,1-.613-2.286L53.745,10.493a1.677,1.677,0,0,1,1.093-.8l6.037-1.313-7.958,7.234a3.977,3.977,0,0,0-.706.906L46.079,27.247a.773.773,0,1,0,1.342.767l4.4-7.7V41.888l-9.27-5.352,3.081-5.39a.773.773,0,0,0-1.342-.767l-3.463,6.058a.773.773,0,0,0,.285,1.053l10.71,6.184v1.985l-4.638-2.678a.773.773,0,0,0-.773,1.339l5.411,3.124v1.978a3.354,3.354,0,0,0,3.35,3.35H78.877a3.354,3.354,0,0,0,3.35-3.35V40.589a.773.773,0,1,0-1.546,0v8.832a1.806,1.806,0,0,1-1.8,1.8H55.171a1.806,1.806,0,0,1-1.8-1.8V18.094a1.807,1.807,0,0,1,.59-1.335L62.164,9.3A7.22,7.22,0,0,1,69.54,7.874L67.664,9.537a3.864,3.864,0,1,0,3.2,3.363l2.522-2.236,6.706,6.1a1.807,1.807,0,0,1,.59,1.335V36.982a.773.773,0,0,0,.773.773ZM78.783,1.743a.773.773,0,0,1,1.036,1.148L68.891,12.582a.773.773,0,0,1-1.036-1.148ZM67.024,15.666a2.319,2.319,0,0,1-.814-4.49,2.319,2.319,0,0,0,2.979,3A2.323,2.323,0,0,1,67.024,15.666Z" transform="translate(-37.104 0)" stroke="#000" stroke-width="0.5"/>
    <path id="Trazado_69" data-name="Trazado 69" d="M221.8,186.994H210.663a.773.773,0,0,0-.773.773v28.86a.773.773,0,0,0,.773.773h22.675a.773.773,0,0,0,.773-.773v-28.86a.773.773,0,0,0-.773-.773h-7.926a.773.773,0,1,0,0,1.546h7.153v27.314H211.436V188.54H221.8a.773.773,0,1,0,0-1.546Z" transform="translate(-192.081 -167.721)" stroke="#000" stroke-width="0.5"/>
    <path id="Trazado_70" data-name="Trazado 70" d="M273.09,216.2a2.322,2.322,0,0,0-2.319,2.319v.778a5.465,5.465,0,0,0-1.681,8.81c1.6,1.539,2.966,1.814,4.814,2.464a1.115,1.115,0,0,1,.847,1.329,1.675,1.675,0,0,1-1.676,1.423,3.383,3.383,0,0,1-2.532-.649A2.319,2.319,0,0,0,268,236.559a7.881,7.881,0,0,0,2.768,1.226v.483a2.319,2.319,0,1,0,4.638,0v-.737a6.157,6.157,0,0,0,1.938-1.213,6.421,6.421,0,0,0,1.977-3.646,5.714,5.714,0,0,0-3.875-6.471c-.99-.364-2.607-.7-3.123-1.413a.919.919,0,0,1,.369-1.261,1.554,1.554,0,0,1,1.778.269,2.383,2.383,0,0,0,3.346-.189,2.33,2.33,0,0,0-.226-3.242,6.354,6.354,0,0,0-2.184-1.248v-.594a2.322,2.322,0,0,0-2.319-2.319Zm3.473,5.313a.773.773,0,1,1-1.039,1.145,3.112,3.112,0,0,0-3.444-.553,2.378,2.378,0,0,0-1.4,1.656,2.239,2.239,0,0,0,.563,2.132c.943.969,2.236,1.251,3.686,1.763a4.207,4.207,0,0,1,2.866,4.757,4.868,4.868,0,0,1-1.5,2.764,4.611,4.611,0,0,1-1.876,1.053.773.773,0,0,0-.562.744v1.292a.773.773,0,1,1-1.546,0v-1.141a.773.773,0,0,0-.685-.768,5.92,5.92,0,0,1-2.782-1.094.773.773,0,0,1,.265-1.4.779.779,0,0,1,.16-.017.768.768,0,0,1,.422.126,4.859,4.859,0,0,0,3.389.9,3.215,3.215,0,0,0,3.19-2.713,2.64,2.64,0,0,0-1.856-3.043c-1.439-.506-3.022-.869-4.25-2.114a3.911,3.911,0,0,1,1.486-6.385.806.806,0,0,0,.662-.775v-1.32a.773.773,0,0,1,1.546,0V219.7a.773.773,0,0,0,.6.753A4.893,4.893,0,0,1,276.563,221.517Z" transform="translate(-243.262 -193.92)" stroke="#000" stroke-width="0.5"/>
  </g>
</svg>
