<svg id="guitar" xmlns="http://www.w3.org/2000/svg" width="107.607" height="107.606" viewBox="0 0 107.607 107.606">
  <path id="Trazado_49" data-name="Trazado 49" d="M154.258,297.911a10.237,10.237,0,0,0-3.164-16.63,1.576,1.576,0,0,0-1.254,2.893,7.085,7.085,0,1,1-5.616-.012,1.576,1.576,0,0,0-1.243-2.9,10.237,10.237,0,1,0,11.276,16.646Z" transform="translate(-108.034 -222.051)" fill="#fff"/>
  <path id="Trazado_50" data-name="Trazado 50" d="M107.144,14.051l-.884-.884a4.069,4.069,0,0,0-.223-5.517l-.69-.69a1.576,1.576,0,1,0-2.229,2.229l.69.69a.921.921,0,0,1-.084,1.377L91.5,20.825l-4.716-4.716L96.351,3.882A.921.921,0,0,1,97.728,3.8l.537.537a1.576,1.576,0,0,0,2.229-2.229l-.537-.537a4.07,4.07,0,0,0-5.517-.223L93.555.463a1.576,1.576,0,1,0-2.229,2.229l1.1,1.1L91.057,5.531l-.836-.836a1.576,1.576,0,0,0-2.229,2.229L89.1,8.032,87.735,9.775l-.624-.624a1.576,1.576,0,0,0-2.229,2.229l.9.9L84.1,14.422a2.779,2.779,0,0,0-.578,1.959L58.332,40.654A16.987,16.987,0,0,0,46.6,36h-.089a16.518,16.518,0,0,0-11.807,4.966,16.685,16.685,0,0,0-3.27,4.752A9.25,9.25,0,0,1,23.373,51.1,24.049,24.049,0,0,0,0,75.1,24.443,24.443,0,0,0,7.21,92.573l7.824,7.824a24.625,24.625,0,0,0,15.525,7.138q.939.072,1.875.072a24.047,24.047,0,0,0,14.329-4.7,1.576,1.576,0,1,0-1.877-2.533,21.342,21.342,0,0,1-27.622-2.21L9.439,90.344A21.311,21.311,0,0,1,3.152,75.111a20.736,20.736,0,0,1,6.168-14.8,20.955,20.955,0,0,1,14.148-6.065,12.424,12.424,0,0,0,10.837-7.222,13.542,13.542,0,0,1,2.655-3.856,13.388,13.388,0,0,1,9.571-4.02H46.6a13.858,13.858,0,0,1,9.457,3.695L45.61,52.913a2.63,2.63,0,0,0-.035,3.753l5.365,5.365a2.61,2.61,0,0,0,1.859.77h.025a2.61,2.61,0,0,0,1.869-.8l10.07-10.45a13.859,13.859,0,0,1,3.695,9.53,13.388,13.388,0,0,1-4.02,9.571A13.545,13.545,0,0,1,60.583,73.3,12.423,12.423,0,0,0,53.36,84.139a20.9,20.9,0,0,1-3.987,11.7,1.576,1.576,0,1,0,2.551,1.852,24.038,24.038,0,0,0,4.587-13.454,9.25,9.25,0,0,1,5.382-8.065,16.69,16.69,0,0,0,4.752-3.27,16.517,16.517,0,0,0,4.966-11.806,16.989,16.989,0,0,0-4.658-11.817L91.224,24.088c.081.007.163.012.244.012a2.777,2.777,0,0,0,1.716-.591l2.145-1.679.9.9A1.576,1.576,0,1,0,98.455,20.5l-.624-.624,1.744-1.365,1.108,1.108a1.576,1.576,0,0,0,2.229-2.229l-.836-.836,1.744-1.365,1.1,1.1a1.577,1.577,0,0,0,2.23-2.23Zm-18.6,8.277L85.289,25.7,81.9,22.318l3.376-3.253Zm-8.009,8.311-3.566-3.566,2.664-2.567L83.1,27.975ZM75.074,36.3,71.3,32.533,74.7,29.262l3.648,3.648Zm-5.46,5.665-3.977-3.977,3.395-3.271,3.854,3.854ZM58.6,53.4,54.2,49.01l3.446-3.321,4.268,4.268Zm5.509-5.717L59.92,43.5l3.446-3.321,4.06,4.06ZM52.793,59.426l-4.612-4.612L51.934,51.2l4.476,4.476Z" transform="translate(0.001 -0.001)" fill="#fff"/>
  <path id="Trazado_51" data-name="Trazado 51" d="M110.607,370.313a1.576,1.576,0,0,0,1.115-2.691l-7.545-7.545a1.576,1.576,0,1,0-2.229,2.229l7.545,7.545A1.571,1.571,0,0,0,110.607,370.313Z" transform="translate(-80.157 -284.035)" fill="#fff"/>
  <path id="Trazado_52" data-name="Trazado 52" d="M81.6,380.427a1.576,1.576,0,0,0,0,2.229l7.545,7.545a1.576,1.576,0,0,0,2.229-2.229l-7.545-7.545A1.577,1.577,0,0,0,81.6,380.427Z" transform="translate(-64.083 -300.108)" fill="#fff"/>
  <path id="Trazado_53" data-name="Trazado 53" d="M447.336,40.912l-2.575,2.575a1.576,1.576,0,0,0,2.229,2.229l2.575-2.575a1.576,1.576,0,0,0-2.229-2.229Z" transform="translate(-350.921 -31.949)" fill="#fff"/>
</svg>
