<svg xmlns="http://www.w3.org/2000/svg" width="61.611" height="61.61" viewBox="0 0 61.611 61.61">
  <g id="flute" transform="translate(4.001 -0.001)">
    <g id="Grupo_31" data-name="Grupo 31" transform="translate(31.456 26.05)">
      <g id="Grupo_30" data-name="Grupo 30">
        <circle id="Elipse_1" data-name="Elipse 1" cx="1.348" cy="1.348" r="1.348" fill="#fff"/>
      </g>
    </g>
    <g id="Grupo_33" data-name="Grupo 33" transform="translate(27.15 30.355)">
      <g id="Grupo_32" data-name="Grupo 32">
        <circle id="Elipse_2" data-name="Elipse 2" cx="1.348" cy="1.348" r="1.348" fill="#fff"/>
      </g>
    </g>
    <g id="Grupo_35" data-name="Grupo 35" transform="translate(22.845 34.661)">
      <g id="Grupo_34" data-name="Grupo 34">
        <circle id="Elipse_3" data-name="Elipse 3" cx="1.348" cy="1.348" r="1.348" fill="#fff"/>
      </g>
    </g>
    <g id="Grupo_37" data-name="Grupo 37" transform="translate(18.539 38.966)">
      <g id="Grupo_36" data-name="Grupo 36">
        <circle id="Elipse_4" data-name="Elipse 4" cx="1.348" cy="1.348" r="1.348" fill="#fff"/>
      </g>
    </g>
    <g id="Grupo_39" data-name="Grupo 39" transform="translate(14.233 43.271)">
      <g id="Grupo_38" data-name="Grupo 38">
        <circle id="Elipse_5" data-name="Elipse 5" cx="1.348" cy="1.348" r="1.348" fill="#fff"/>
      </g>
    </g>
    <g id="Grupo_41" data-name="Grupo 41" transform="translate(9.928 47.577)">
      <g id="Grupo_40" data-name="Grupo 40">
        <circle id="Elipse_6" data-name="Elipse 6" cx="1.348" cy="1.348" r="1.348" fill="#fff"/>
      </g>
    </g>
    <g id="Grupo_43" data-name="Grupo 43" transform="translate(-4.001 0.001)">
      <g id="Grupo_42" data-name="Grupo 42" transform="translate(0)">
        <path id="Trazado_30" data-name="Trazado 30" d="M60.607,2.072,59.539,1A3.443,3.443,0,0,0,56.624.036c-1.934.281-5,1.3-8.708,4.508A2.416,2.416,0,0,0,47.089,7.5l-7.356,7.356L33.7,19.172a2.06,2.06,0,0,0-.893,2.612L14,40.591a.9.9,0,1,0,1.276,1.276L33.881,23.262l4.468,4.468L12.883,53.2,8.414,48.728l4.164-4.164A.9.9,0,1,0,11.3,43.287L6.807,47.782A2.95,2.95,0,0,0,3.5,50.063,3.317,3.317,0,0,0,.97,55.722l4.919,4.919A3.317,3.317,0,0,0,11.547,58.1c2.613-.425,2.317-3.121,2.282-3.3l26-26a2.15,2.15,0,0,0,2.613-.893l4.316-6.035,7.356-7.356c.273.087,1.346.783,2.956-.827a14.9,14.9,0,0,0,1.56-1.974.9.9,0,1,0-1.471-1.045c-.434.61-.927,1.222-1.449,1.834a.975.975,0,0,1-1.447.051L49.05,7.352A.975.975,0,0,1,49.1,5.906c3.57-3.05,6.4-3.882,7.782-4.083a1.628,1.628,0,0,1,1.379.457l1.068,1.068a1.629,1.629,0,0,1,.458,1.379A11.215,11.215,0,0,1,58.926,7.6a.9.9,0,1,0,1.652.727,13.007,13.007,0,0,0,1-3.342A3.444,3.444,0,0,0,60.607,2.072ZM11.79,56.054a1,1,0,0,1-.884.27,3.333,3.333,0,0,0-.324-.377l-.456-.456A.9.9,0,0,0,8.85,56.768l.456.456a1.514,1.514,0,0,1-2.141,2.141L2.246,54.446A1.514,1.514,0,1,1,4.387,52.3l1.859,1.859a.9.9,0,0,0,1.276-1.276L5.663,51.028a3.327,3.327,0,0,0-.375-.323.983.983,0,0,1,.268-.885.927.927,0,0,1,1.4,0l4.836,4.836A.971.971,0,0,1,11.79,56.054ZM40.97,26.863a.568.568,0,0,1-.864.071l-5.43-5.43a.569.569,0,0,1,.071-.864l5.474-3.914,4.663,4.663Zm8.849-14.4-3,2.969-.7-.708,3-2.969ZM49.07,9.925a1.734,1.734,0,0,0-1.179.5l-3.084,3.057a1.743,1.743,0,0,0-.011,2.465l.789.8h0a1.745,1.745,0,0,0,2.465.011L51.134,13.7a1.736,1.736,0,0,0,.513-1.2l.965.965-6.548,6.548-4.469-4.468L48.143,9Z" transform="translate(0.001 -0.001)" fill="#fff"/>
      </g>
    </g>
  </g>
</svg>
