<?xml version="1.0" encoding="utf-8"?>
<!-- Generator: Adobe Illustrator 24.3.0, SVG Export Plug-In . SVG Version: 6.00 Build 0)  -->
<svg version="1.1" id="Capa_1" xmlns="http://www.w3.org/2000/svg" xmlns:xlink="http://www.w3.org/1999/xlink" x="0px" y="0px"
	 viewBox="0 0 131.2 103" style="enable-background:new 0 0 131.2 103;" xml:space="preserve">
<style type="text/css">
	.st0{fill:#FFFFFF;}
</style>
<g id="keyboard" transform="translate(93.32 -0.024) rotate(43)">
	<path id="Trazado_35" class="st0" d="M40.2,1.1c-2.3-2.2-5.9-2.2-8.1,0l-73.4,73.4c-2.3,2.2-2.3,5.9,0,8.1c0,0,0,0,0,0l29.9,29.9
		c2.3,2.2,5.9,2.2,8.1,0l73.4-73.4c2.3-2.2,2.3-5.9,0-8.1c0,0,0,0,0,0L40.2,1.1z M34.7,3.8c0.8-0.8,2-0.8,2.7,0l10.9,10.9L35.6,27.4
		l-2.2,2.2L7.5,55.5l-1.3,1.3l-5.4,5.4l-3.4,3.4l-6.1,6.1L-21,59.5L34.7,3.8z M40.2,28.2l8.2,8.2l-2.7,2.7L37.5,31l1.1-1.1
		L40.2,28.2z M29.3,39.1l8.2,8.2L34.8,50l-8.2-8.2L29.3,39.1z M13,55.4l8.2,8.2l-2.7,2.7l-8.2-8.2l0.5-0.5L13,55.4z M2.1,66.3
		l8.2,8.2l-2.7,2.7L-0.6,69L0.5,68L2.1,66.3z M-6,109.8c-0.8,0.7-2,0.7-2.7,0l-29.9-29.9c-0.4-0.4-0.6-0.8-0.6-1.4
		c0-0.5,0.2-1,0.6-1.4l15-15L8.9,94.9L-6,109.8z M11.6,92.1L-6,74.5l2.7-2.7l8.2,8.2c1.5,1.5,3.9,1.5,5.4,0l0,0l6.8,6.8L11.6,92.1z
		 M19.8,84L13,77.2l0,0c1.5-1.5,1.5-3.9,0-5.4l-8.2-8.2l2.7-2.7l8.2,8.2c1.5,1.5,3.9,1.5,5.4,0l0,0l6.8,6.8L19.8,84z M30.7,73.1
		l-6.8-6.8l0,0c1.5-1.5,1.5-3.9,0-5.4l-8.2-8.2l2.7-2.7l17.7,17.7L30.7,73.1z M38.8,65L21.1,47.3l2.7-2.7l8.2,8.2
		c1.5,1.5,3.9,1.5,5.4,0c0,0,0,0,0,0l0,0l6.8,6.8L38.8,65z M47,56.8L40.2,50l0,0c1.5-1.5,1.5-3.9,0-5.4L32,36.4l2.7-2.7l8.2,8.2
		c1.5,1.5,3.9,1.5,5.4,0c0,0,0,0,0,0l0,0l6.8,6.8L47,56.8z M57.9,45.9L51,39.1l0,0c1.5-1.5,1.5-3.9,0-5.4l-8.2-8.2l2.7-2.7
		l17.7,17.7L57.9,45.9z M67.4,36.4L66,37.8L48.3,20.1l2.7-2.7l16.3,16.3C68.1,34.4,68.1,35.6,67.4,36.4
		C67.4,36.4,67.4,36.4,67.4,36.4L67.4,36.4z"/>
	<path id="Trazado_36" class="st0" d="M-24.6,87.4c0.5,0.5,1.4,0.5,2,0l5.9-5.9c0.6-0.5,0.6-1.4,0-2c-0.5-0.6-1.4-0.6-2,0
		c0,0,0,0,0,0l-5.9,5.9C-25.2,86-25.2,86.8-24.6,87.4z"/>
	<path id="Trazado_37" class="st0" d="M-33.9,81.8c0.5,0.5,1.4,0.5,2,0l5.9-5.9c0.6-0.5,0.6-1.4,0-2c-0.5-0.6-1.4-0.6-2,0
		c0,0,0,0,0,0l-5.9,5.9C-34.4,80.4-34.5,81.2-33.9,81.8C-33.9,81.8-33.9,81.8-33.9,81.8z"/>
	<path id="Trazado_38" class="st0" d="M-19,93c0.5,0.5,1.4,0.5,2,0l5.9-5.9c0.5-0.5,0.5-1.4,0-2c-0.5-0.5-1.4-0.5-2,0L-19,91
		C-19.6,91.6-19.6,92.5-19,93C-19,93-19,93-19,93z"/>
	<path id="Trazado_39" class="st0" d="M-13.4,103.1c0.5,0.5,1.4,0.5,2,0l5.9-5.9c0.6-0.5,0.6-1.4,0-2c-0.5-0.6-1.4-0.6-2,0
		c0,0,0,0,0,0l-5.9,5.9C-14,101.7-14,102.5-13.4,103.1C-13.4,103.1-13.4,103.1-13.4,103.1L-13.4,103.1z"/>
	<path id="Trazado_40" class="st0" d="M-7.8,107c0.5,0.5,1.4,0.5,2,0l5.9-5.9c0.6-0.5,0.6-1.4,0-2c-0.5-0.6-1.4-0.6-2,0c0,0,0,0,0,0
		l-5.9,5.9C-8.4,105.6-8.4,106.5-7.8,107z"/>
	<path id="Trazado_41" class="st0" d="M-8.8,62.1l-3-3c-0.5-0.6-1.4-0.6-2,0c-0.6,0.5-0.6,1.4,0,2c0,0,0,0,0,0l3,3
		c0.5,0.6,1.4,0.6,2,0C-8.3,63.6-8.3,62.7-8.8,62.1C-8.8,62.2-8.8,62.2-8.8,62.1L-8.8,62.1z"/>
	<path id="Trazado_42" class="st0" d="M-5.2,58.6c0.5,0.5,1.4,0.5,2,0c0.5-0.5,0.5-1.4,0-2l-3-3c-0.5-0.6-1.4-0.6-2,0
		c-0.6,0.5-0.6,1.4,0,2c0,0,0,0,0,0L-5.2,58.6z"/>
	<path id="Trazado_43" class="st0" d="M-1.8,49.5c0.4,0,0.7-0.1,1-0.4l2-2c0.6-0.5,0.6-1.4,0-2c-0.5-0.6-1.4-0.6-2,0c0,0,0,0,0,0
		l-2,2c-0.5,0.5-0.5,1.4,0,2C-2.5,49.4-2.2,49.5-1.8,49.5z"/>
	<path id="Trazado_44" class="st0" d="M6.5,41.2c0.4,0,0.7-0.1,1-0.4l2-2c0.6-0.5,0.6-1.4,0-2c-0.5-0.6-1.4-0.6-2,0c0,0,0,0,0,0
		l-2,2c-0.5,0.5-0.5,1.4,0,2C5.7,41.1,6.1,41.2,6.5,41.2z"/>
	<path id="Trazado_45" class="st0" d="M14.8,32.9c0.4,0,0.7-0.1,1-0.4l2-2c0.6-0.5,0.6-1.4,0-2c-0.5-0.6-1.4-0.6-2,0c0,0,0,0,0,0
		l-2,2c-0.5,0.5-0.5,1.4,0,2C14,32.8,14.4,32.9,14.8,32.9z"/>
	<path id="Trazado_46" class="st0" d="M23,24.6c0.4,0,0.7-0.1,1-0.4l2-2c0.5-0.5,0.5-1.4,0-2c-0.5-0.5-1.4-0.5-2,0l-2,2
		c-0.5,0.5-0.5,1.4,0,2C22.3,24.5,22.7,24.6,23,24.6L23,24.6z"/>
	<path id="Trazado_47" class="st0" d="M31.1,13.5c0.5,0.6,1.4,0.6,2,0.1c0.6-0.5,0.6-1.4,0.1-2c0,0-0.1-0.1-0.1-0.1l-1-1
		c-0.5-0.6-1.4-0.6-2-0.1c-0.6,0.5-0.6,1.4-0.1,2c0,0,0.1,0.1,0.1,0.1L31.1,13.5z"/>
	<path id="Trazado_48" class="st0" d="M36.6,9.5c0.5,0.5,1.4,0.5,2,0s0.5-1.4,0-2l0,0l-1-1c-0.5-0.5-1.4-0.5-2,0
		c-0.5,0.5-0.5,1.4,0,2L36.6,9.5z"/>
</g>
</svg>
