<?xml version="1.0" encoding="utf-8"?>
<!-- Generator: Adobe Illustrator 24.3.0, SVG Export Plug-In . SVG Version: 6.00 Build 0)  -->
<svg version="1.1" id="Capa_1" xmlns="http://www.w3.org/2000/svg" xmlns:xlink="http://www.w3.org/1999/xlink" x="0px" y="0px"
	 viewBox="0 0 172.4 117.6" style="enable-background:new 0 0 172.4 117.6;" xml:space="preserve">
<style type="text/css">
	.st0{fill:#FFFFFF;}
</style>
<g id="keyboard" transform="translate(83.175 -0.024) rotate(43)">
	<path id="Trazado_35" class="st0" d="M77.6-35.3c-3.1-3-8-3-11.1,0L-33.9,65.1c-3.1,3.1-3.1,8,0,11.1c0,0,0,0,0,0L7,117.1
		c3.1,3.1,8.1,3.1,11.1,0L118.5,16.8c3.1-3,3.1-8,0.1-11.1c0,0,0,0-0.1-0.1L77.6-35.3z M70.2-31.6c1-1,2.7-1,3.7,0l14.9,14.9
		L71.4,0.7l-3.1,3.1L32.9,39.2l-1.7,1.8l-7.4,7.4L19.1,53l-8.4,8.4L-6,44.7L70.2-31.6z M77.6,1.9l11.2,11.2l-3.7,3.7L73.9,5.6
		l1.5-1.5L77.6,1.9z M62.8,16.8l11.2,11.2l-3.7,3.7L59,20.5L62.8,16.8z M40.5,39.1l11.2,11.2L47.9,54L36.7,42.8l0.7-0.7L40.5,39.1z
		 M25.6,53.9l11.2,11.2L33,68.8L21.9,57.7l1.5-1.5L25.6,53.9z M14.4,113.4c-1,1-2.7,1-3.7,0l-40.9-40.9c-0.5-0.5-0.8-1.2-0.8-1.9
		c0-0.7,0.3-1.4,0.8-1.9l20.4-20.5L34.9,93L14.4,113.4z M38.6,89.3L14.4,65.1l3.7-3.7l11.2,11.2c2,2,5.4,2,7.4,0l0,0l9.3,9.3
		L38.6,89.3z M49.7,78.1l-9.3-9.3l0,0c2-2,2-5.4,0-7.4L29.3,50.2l3.7-3.7l11.2,11.2c2,2,5.4,2,7.4,0l0,0l9.3,9.3L49.7,78.1z
		 M64.6,63.3L55.3,54l0,0c2-2,2-5.4,0-7.4L44.1,35.4l3.7-3.7l24.2,24.2L64.6,63.3z M75.8,52.1L51.6,27.9l3.7-3.7l11.2,11.2
		c2,2,5.4,2,7.4,0c0,0,0,0,0,0l0,0l9.3,9.3L75.8,52.1z M86.9,41l-9.3-9.3l0,0c2-2,2-5.4,0-7.4L66.5,13.1l3.7-3.7l11.2,11.2
		c2,2,5.4,2,7.4,0c0,0,0,0,0,0l0,0l9.3,9.3L86.9,41z M101.8,26.1l-9.3-9.3l0,0c2-2,2-5.4,0-7.4L81.3-1.8l3.7-3.7l24.2,24.2
		L101.8,26.1z M114.8,13.1l-1.9,1.9L88.8-9.3l3.7-3.7l22.3,22.3C115.8,10.3,115.8,12,114.8,13.1C114.8,13,114.8,13,114.8,13.1
		L114.8,13.1z"/>
	<path id="Trazado_36" class="st0" d="M-11.2,83.1c0.8,0.8,2.2,0.8,3,0L0.9,74c0.8-0.8,0.9-2.2,0-3c-0.8-0.8-2.2-0.9-3,0
		c0,0,0,0,0,0l-9.1,9.1C-12,80.9-12,82.2-11.2,83.1z"/>
	<path id="Trazado_37" class="st0" d="M-22.2,75.5c0.8,0.8,2.2,0.8,3,0l9.1-9.1c0.8-0.8,0.9-2.2,0-3s-2.2-0.9-3,0c0,0,0,0,0,0
		l-9.1,9.1C-23,73.3-23,74.6-22.2,75.5C-22.2,75.5-22.2,75.5-22.2,75.5z"/>
	<path id="Trazado_38" class="st0" d="M-3.6,90.7c0.8,0.8,2.2,0.8,3,0l9.1-9.1c0.8-0.8,0.8-2.2,0-3c-0.8-0.8-2.2-0.8-3,0l-9.1,9.1
		C-4.5,88.5-4.5,89.8-3.6,90.7C-3.6,90.7-3.6,90.7-3.6,90.7z"/>
	<path id="Trazado_39" class="st0" d="M4,102.4c0.8,0.8,2.2,0.8,3,0l9.1-9.1c0.8-0.8,0.9-2.2,0-3c-0.8-0.8-2.2-0.9-3,0c0,0,0,0,0,0
		L4,99.4C3.1,100.2,3.1,101.6,4,102.4C4,102.4,4,102.4,4,102.4L4,102.4z"/>
	<path id="Trazado_40" class="st0" d="M11.6,108.5c0.8,0.8,2.2,0.8,3,0l9.1-9.1c0.8-0.8,0.9-2.2,0-3c-0.8-0.8-2.2-0.9-3,0
		c0,0,0,0,0,0l-9.1,9.1C10.7,106.3,10.7,107.6,11.6,108.5z"/>
	<path id="Trazado_41" class="st0" d="M11.2,48.3l-4.6-4.6c-0.8-0.8-2.2-0.9-3,0c-0.8,0.8-0.9,2.2,0,3c0,0,0,0,0,0l4.6,4.6
		c0.8,0.8,2.2,0.9,3,0S12.1,49.2,11.2,48.3C11.3,48.3,11.2,48.3,11.2,48.3L11.2,48.3z"/>
	<path id="Trazado_42" class="st0" d="M15.8,43.8c0.8,0.8,2.2,0.8,3,0c0.8-0.8,0.8-2.2,0-3l-4.6-4.6c-0.8-0.8-2.2-0.9-3,0
		s-0.9,2.2,0,3c0,0,0,0,0,0L15.8,43.8z"/>
	<path id="Trazado_43" class="st0" d="M20.1,31.4c0.6,0,1.1-0.2,1.5-0.6l3-3c0.8-0.8,0.9-2.2,0-3c-0.8-0.8-2.2-0.9-3,0c0,0,0,0,0,0
		l-3,3c-0.8,0.8-0.8,2.2,0,3C19,31.2,19.6,31.4,20.1,31.4z"/>
	<path id="Trazado_44" class="st0" d="M31.4,20.2c0.6,0,1.1-0.2,1.5-0.6l3-3c0.8-0.8,0.9-2.2,0-3c-0.8-0.8-2.2-0.9-3,0c0,0,0,0,0,0
		l-3,3c-0.8,0.8-0.8,2.2,0,3C30.3,19.9,30.8,20.2,31.4,20.2z"/>
	<path id="Trazado_45" class="st0" d="M42.7,8.9c0.6,0,1.1-0.2,1.5-0.6l3-3c0.8-0.8,0.9-2.2,0-3c-0.8-0.8-2.2-0.9-3,0c0,0,0,0,0,0
		l-3,3c-0.8,0.8-0.8,2.2,0,3C41.6,8.7,42.1,8.9,42.7,8.9z"/>
	<path id="Trazado_46" class="st0" d="M53.9-2.4c0.6,0,1.1-0.2,1.5-0.6l3-3c0.8-0.8,0.8-2.2,0-3c-0.8-0.8-2.2-0.8-3,0l-3,3
		c-0.8,0.8-0.8,2.2,0,3C52.8-2.6,53.4-2.4,53.9-2.4L53.9-2.4z"/>
	<path id="Trazado_47" class="st0" d="M65-16c0.8,0.9,2.1,0.9,3,0.1c0.9-0.8,0.9-2.1,0.1-3c0,0-0.1-0.1-0.1-0.1l-1.5-1.5
		c-0.8-0.9-2.1-1-3-0.2c-0.9,0.8-1,2.1-0.2,3c0.1,0.1,0.1,0.1,0.2,0.2L65-16z"/>
	<path id="Trazado_48" class="st0" d="M72.5-22c0.8,0.8,2.2,0.8,3,0c0.8-0.8,0.8-2.2,0-3l0,0L74-26.6c-0.8-0.8-2.2-0.8-3,0
		s-0.8,2.2,0,3L72.5-22z"/>
</g>
</svg>
