<svg xmlns="http://www.w3.org/2000/svg" width="103" height="102.964" viewBox="0 0 103 102.964">
  <g id="Grupo_47" data-name="Grupo 47" transform="translate(-219 -620.053)">
    <path id="Trazado_55" data-name="Trazado 55" d="M100.767,1.414A5.972,5.972,0,0,0,92.16,2.59L67.648,36.809h0a2.682,2.682,0,0,1-1.967,1.09,6.456,6.456,0,0,0-4.762,2.753c-.019.028-.037.056-.055.083-1.89-.131-3.836-.225-5.807-.276a1.508,1.508,0,1,0-.077,3.015c1.629.042,3.242.113,4.817.211a6.463,6.463,0,0,0,12.829,1.564,42.911,42.911,0,0,1,9.733,2.888c2.272,1.07,3.628,2.26,3.628,3.185,0,3.1-12.9,7.894-34.529,7.894-21.58,0-34.529-4.787-34.529-7.894,0-.928,1.365-2.123,3.651-3.2a43.19,43.19,0,0,1,9.79-2.893A6.462,6.462,0,0,0,43.2,43.68c1.576-.1,3.191-.167,4.82-.208a1.508,1.508,0,1,0-.075-3.016c-1.971.049-3.919.142-5.811.272-.017-.026-.034-.052-.051-.078A6.456,6.456,0,0,0,37.318,37.9a2.679,2.679,0,0,1-1.966-1.089L10.84,2.59a5.978,5.978,0,1,0-9.3,7.483L29.719,41.34a2.7,2.7,0,0,1,.519.848c-6.672,1.249-16.325,3.952-16.325,9.134V92.144c0,3.357,3.931,6.085,11.683,8.108,6.927,1.807,16.112,2.8,25.863,2.8,14.475,0,37.546-2.787,37.546-10.91V78.4a1.508,1.508,0,1,0-3.016,0v8.062c0,1.34-2.837,3.43-9.159,5.117l9.159-27.269v7.051a1.508,1.508,0,0,0,3.016,0V51.322c0-5.167-9.608-7.869-16.248-9.119a2.7,2.7,0,0,1,.524-.863L101.46,10.073a5.972,5.972,0,0,0-.693-8.659ZM3.78,8.053A2.961,2.961,0,1,1,8.387,4.346L32.9,38.566h0A5.692,5.692,0,0,0,37.062,40.9a3.448,3.448,0,1,1-3.691,2.841,5.523,5.523,0,0,0-1.412-4.424ZM19.867,63.588c5.366,2.342,13.071,3.565,18.936,4.13L28.612,89.626Zm-2.938.727,9.159,27.269c-6.322-1.687-9.159-3.778-9.159-5.117Zm23.957,6.078,8.436,23.952a111.654,111.654,0,0,1-18.763-1.75Zm2.378-2.328c2.659.159,5.4.241,8.194.241s5.535-.082,8.194-.241L51.458,91.329Zm18.766,2.327,10.327,22.2a111.661,111.661,0,0,1-18.763,1.75Zm2.083-2.674c5.863-.565,13.569-1.788,18.937-4.13L74.3,89.627ZM51.458,62.233c9.219,0,27.042-1.191,34.529-6.3V57.4c0,.689-.7,1.319-1.208,1.745-1.411,1.117-4.092,2.368-8.219,3.445-7.7,2.009-17.172,2.7-25.1,2.7s-17.4-.695-25.1-2.7c-4.126-1.076-6.806-2.326-8.217-3.443-1.427-1.2-1.21-1.464-1.21-3.208C24.355,61,42,62.233,51.458,62.233ZM85.988,91.076v1.067c0,3.1-12.922,7.894-34.529,7.894-21.58,0-34.529-4.787-34.529-7.894V91.076c7.446,5.082,25.472,6.3,34.519,6.3h.021C60.523,97.377,78.544,96.156,85.988,91.076ZM99.219,8.053,71.04,39.321A5.533,5.533,0,0,0,69.611,43.6a3.535,3.535,0,0,1-.7,2.9,3.444,3.444,0,0,1-5.018.378,3.493,3.493,0,0,1-.5-4.5A3.448,3.448,0,0,1,65.937,40.9,5.693,5.693,0,0,0,70.1,38.566h0L94.612,4.347a2.961,2.961,0,1,1,4.607,3.707Z" transform="translate(219 619.963)" fill="#fff"/>
    <path id="Trazado_56" data-name="Trazado 56" d="M248.388,135.637v4.918a1.508,1.508,0,0,0,3.016,0v-4.918a1.508,1.508,0,0,0-3.016,0Z" transform="translate(20.562 512.879)" fill="#fff"/>
    <path id="Trazado_57" data-name="Trazado 57" d="M196.487,148.439a1.508,1.508,0,0,0-.552,2.06l2.459,4.259a1.508,1.508,0,0,0,2.612-1.508l-2.459-4.259A1.508,1.508,0,0,0,196.487,148.439Z" transform="translate(62.629 501.608)" fill="#fff"/>
    <path id="Trazado_58" data-name="Trazado 58" d="M291.475,148.991l-2.459,4.259a1.508,1.508,0,0,0,2.612,1.508l2.459-4.259a1.508,1.508,0,0,0-2.612-1.508Z" transform="translate(-11.734 501.608)" fill="#fff"/>
  </g>
</svg>
